<?xml version="1.0" standalone="no"?>
<!DOCTYPE svg PUBLIC "-//W3C//DTD SVG 1.1//EN"
"http://www.w3.org/Graphics/SVG/1.1/DTD/svg11.dtd">

<svg width="1002" height="989" view_box="0 0 1002 989"
xmlns="http://www.w3.org/2000/svg"
xmlns:link="http://www.w3.org/1999/xlink">\n\n<desc>Généré par Mocodo 2.3.7 le Mon, 22 Feb 2021 02:57:38</desc>

<rect id="frame" x="0" y="0" width="1002" height="989" fill="#ffffbf" stroke="none" stroke-width="0"/>

<!-- Association 4_PEUT CONTENIR -->
<line x1="443" y1="254" x2="894" y2="338" stroke="#f46d43" stroke-width="2"/>
<text x="506" y="258.216933831" fill="#4575b4" font-family="Verdana" font-size="12">0,1</text>
<line x1="894" y1="498" x2="894" y2="338" stroke="#f46d43" stroke-width="2"/>
<text x="899.0" y="405" fill="#4575b4" font-family="Verdana" font-size="12">0,1</text>
<g id="association-4_PEUT CONTENIR">
	<path d="M 945 313 a 14 14 90 0 1 14 14 V 338 h -130 V 327 a 14 14 90 0 1 14 -14" fill="#fdae61" stroke="#fdae61" stroke-width="0"/>
	<path d="M 959 338.0 v 11 a 14 14 90 0 1 -14 14 H 843 a 14 14 90 0 1 -14 -14 V 338.0 H 130" fill="#fee090" stroke="#fee090" stroke-width="0"/>
	<rect x="829" y="313" width="130" height="50" fill="none" rx="14" stroke="#f46d43" stroke-width="2"/>
	<line x1="829" y1="338" x2="959" y2="338" stroke="#f46d43" stroke-width="1"/>
	<text x="836" y="330.7" fill="#000000" font-family="Verdana" font-size="12">4_PEUT CONTENIR</text>
</g>

<!-- Association 3_PEUT CONTENIR -->
<line x1="443" y1="254" x2="676" y2="338" stroke="#f46d43" stroke-width="2"/>
<text x="506" y="269.727066804" fill="#4575b4" font-family="Verdana" font-size="12">0,1</text>
<line x1="676" y1="498" x2="676" y2="338" stroke="#f46d43" stroke-width="2"/>
<text x="681.0" y="422" fill="#4575b4" font-family="Verdana" font-size="12">0,1</text>
<g id="association-3_PEUT CONTENIR">
	<path d="M 727 313 a 14 14 90 0 1 14 14 V 338 h -130 V 327 a 14 14 90 0 1 14 -14" fill="#fdae61" stroke="#fdae61" stroke-width="0"/>
	<path d="M 741 338.0 v 11 a 14 14 90 0 1 -14 14 H 625 a 14 14 90 0 1 -14 -14 V 338.0 H 130" fill="#fee090" stroke="#fee090" stroke-width="0"/>
	<rect x="611" y="313" width="130" height="50" fill="none" rx="14" stroke="#f46d43" stroke-width="2"/>
	<line x1="611" y1="338" x2="741" y2="338" stroke="#f46d43" stroke-width="1"/>
	<text x="618" y="330.7" fill="#000000" font-family="Verdana" font-size="12">3_PEUT CONTENIR</text>
</g>

<!-- Association 1_PEUT CONTENIR -->
<line x1="443" y1="254" x2="156" y2="338" stroke="#f46d43" stroke-width="2"/>
<text x="359" y="265.246541636" fill="#4575b4" font-family="Verdana" font-size="12">0,1</text>
<line x1="156" y1="498" x2="156" y2="338" stroke="#f46d43" stroke-width="2"/>
<text x="161.0" y="397" fill="#4575b4" font-family="Verdana" font-size="12">0,1</text>
<g id="association-1_PEUT CONTENIR">
	<path d="M 207 313 a 14 14 90 0 1 14 14 V 338 h -130 V 327 a 14 14 90 0 1 14 -14" fill="#fdae61" stroke="#fdae61" stroke-width="0"/>
	<path d="M 221 338.0 v 11 a 14 14 90 0 1 -14 14 H 105 a 14 14 90 0 1 -14 -14 V 338.0 H 130" fill="#fee090" stroke="#fee090" stroke-width="0"/>
	<rect x="91" y="313" width="130" height="50" fill="none" rx="14" stroke="#f46d43" stroke-width="2"/>
	<line x1="91" y1="338" x2="221" y2="338" stroke="#f46d43" stroke-width="1"/>
	<text x="98" y="330.7" fill="#000000" font-family="Verdana" font-size="12">1_PEUT CONTENIR</text>
</g>

<!-- Association 1_COMPARAISON -->
<line x1="156" y1="498" x2="156" y2="658" stroke="#f46d43" stroke-width="2"/>
<text x="161.0" y="608" fill="#4575b4" font-family="Verdana" font-size="12">0,N</text>
<line x1="156" y1="844" x2="156" y2="658" stroke="#f46d43" stroke-width="2"/>
<text x="161.0" y="777" fill="#4575b4" font-family="Verdana" font-size="12">0,N</text>
<g id="association-1_COMPARAISON">
	<path d="M 203 633 a 14 14 90 0 1 14 14 V 658 h -122 V 647 a 14 14 90 0 1 14 -14" fill="#fdae61" stroke="#fdae61" stroke-width="0"/>
	<path d="M 217 658.0 v 11 a 14 14 90 0 1 -14 14 H 109 a 14 14 90 0 1 -14 -14 V 658.0 H 122" fill="#fee090" stroke="#fee090" stroke-width="0"/>
	<rect x="95" y="633" width="122" height="50" fill="none" rx="14" stroke="#f46d43" stroke-width="2"/>
	<line x1="95" y1="658" x2="217" y2="658" stroke="#f46d43" stroke-width="1"/>
	<text x="102" y="650.7" fill="#000000" font-family="Verdana" font-size="12">1_COMPARAISON</text>
</g>

<!-- Association VIT DANS -->
<line x1="676" y1="77" x2="443" y2="77" stroke="#f46d43" stroke-width="2"/>
<text x="580" y="69.0" fill="#4575b4" font-family="Verdana" font-size="12">0,1</text>
<line x1="156" y1="77" x2="443" y2="77" stroke="#f46d43" stroke-width="2"/>
<text x="203" y="94.0" fill="#4575b4" font-family="Verdana" font-size="12">1,1</text>
<g id="association-VIT DANS">
	<path d="M 467 52 a 14 14 90 0 1 14 14 V 77 h -76 V 66 a 14 14 90 0 1 14 -14" fill="#fdae61" stroke="#fdae61" stroke-width="0"/>
	<path d="M 481 77.0 v 11 a 14 14 90 0 1 -14 14 H 419 a 14 14 90 0 1 -14 -14 V 77.0 H 76" fill="#fee090" stroke="#fee090" stroke-width="0"/>
	<rect x="405" y="52" width="76" height="50" fill="none" rx="14" stroke="#f46d43" stroke-width="2"/>
	<line x1="405" y1="77" x2="481" y2="77" stroke="#f46d43" stroke-width="1"/>
	<text x="412" y="69.7" fill="#000000" font-family="Verdana" font-size="12">VIT DANS</text>
</g>

<!-- Association 3_COMPARAISON -->
<line x1="676" y1="498" x2="676" y2="658" stroke="#f46d43" stroke-width="2"/>
<text x="681.0" y="583" fill="#4575b4" font-family="Verdana" font-size="12">0,N</text>
<line x1="676" y1="844" x2="676" y2="658" stroke="#f46d43" stroke-width="2"/>
<text x="681.0" y="726" fill="#4575b4" font-family="Verdana" font-size="12">0,N</text>
<g id="association-3_COMPARAISON">
	<path d="M 723 633 a 14 14 90 0 1 14 14 V 658 h -122 V 647 a 14 14 90 0 1 14 -14" fill="#fdae61" stroke="#fdae61" stroke-width="0"/>
	<path d="M 737 658.0 v 11 a 14 14 90 0 1 -14 14 H 629 a 14 14 90 0 1 -14 -14 V 658.0 H 122" fill="#fee090" stroke="#fee090" stroke-width="0"/>
	<rect x="615" y="633" width="122" height="50" fill="none" rx="14" stroke="#f46d43" stroke-width="2"/>
	<line x1="615" y1="658" x2="737" y2="658" stroke="#f46d43" stroke-width="1"/>
	<text x="622" y="650.7" fill="#000000" font-family="Verdana" font-size="12">3_COMPARAISON</text>
</g>

<!-- Association 2_COMPARAISON -->
<line x1="443" y1="498" x2="443" y2="658" stroke="#f46d43" stroke-width="2"/>
<text x="448.0" y="625" fill="#4575b4" font-family="Verdana" font-size="12">0,N</text>
<line x1="443" y1="844" x2="443" y2="658" stroke="#f46d43" stroke-width="2"/>
<text x="448.0" y="768" fill="#4575b4" font-family="Verdana" font-size="12">0,N</text>
<g id="association-2_COMPARAISON">
	<path d="M 490 633 a 14 14 90 0 1 14 14 V 658 h -122 V 647 a 14 14 90 0 1 14 -14" fill="#fdae61" stroke="#fdae61" stroke-width="0"/>
	<path d="M 504 658.0 v 11 a 14 14 90 0 1 -14 14 H 396 a 14 14 90 0 1 -14 -14 V 658.0 H 122" fill="#fee090" stroke="#fee090" stroke-width="0"/>
	<rect x="382" y="633" width="122" height="50" fill="none" rx="14" stroke="#f46d43" stroke-width="2"/>
	<line x1="382" y1="658" x2="504" y2="658" stroke="#f46d43" stroke-width="1"/>
	<text x="389" y="650.7" fill="#000000" font-family="Verdana" font-size="12">2_COMPARAISON</text>
</g>

<!-- Association 2_PEUT CONTENIR -->
<line x1="443" y1="254" x2="443" y2="338" stroke="#f46d43" stroke-width="2"/>
<text x="448.0" y="305" fill="#4575b4" font-family="Verdana" font-size="12">0,1</text>
<line x1="443" y1="498" x2="443" y2="338" stroke="#f46d43" stroke-width="2"/>
<text x="448.0" y="380" fill="#4575b4" font-family="Verdana" font-size="12">0,1</text>
<g id="association-2_PEUT CONTENIR">
	<path d="M 494 313 a 14 14 90 0 1 14 14 V 338 h -130 V 327 a 14 14 90 0 1 14 -14" fill="#fdae61" stroke="#fdae61" stroke-width="0"/>
	<path d="M 508 338.0 v 11 a 14 14 90 0 1 -14 14 H 392 a 14 14 90 0 1 -14 -14 V 338.0 H 130" fill="#fee090" stroke="#fee090" stroke-width="0"/>
	<rect x="378" y="313" width="130" height="50" fill="none" rx="14" stroke="#f46d43" stroke-width="2"/>
	<line x1="378" y1="338" x2="508" y2="338" stroke="#f46d43" stroke-width="1"/>
	<text x="385" y="330.7" fill="#000000" font-family="Verdana" font-size="12">2_PEUT CONTENIR</text>
</g>

<!-- Association 4_COMPARAISON -->
<line x1="894" y1="498" x2="894" y2="658" stroke="#f46d43" stroke-width="2"/>
<text x="899.0" y="600" fill="#4575b4" font-family="Verdana" font-size="12">0,N</text>
<line x1="894" y1="844" x2="894" y2="658" stroke="#f46d43" stroke-width="2"/>
<text x="899.0" y="700" fill="#4575b4" font-family="Verdana" font-size="12">0,N</text>
<g id="association-4_COMPARAISON">
	<path d="M 941 633 a 14 14 90 0 1 14 14 V 658 h -122 V 647 a 14 14 90 0 1 14 -14" fill="#fdae61" stroke="#fdae61" stroke-width="0"/>
	<path d="M 955 658.0 v 11 a 14 14 90 0 1 -14 14 H 847 a 14 14 90 0 1 -14 -14 V 658.0 H 122" fill="#fee090" stroke="#fee090" stroke-width="0"/>
	<rect x="833" y="633" width="122" height="50" fill="none" rx="14" stroke="#f46d43" stroke-width="2"/>
	<line x1="833" y1="658" x2="955" y2="658" stroke="#f46d43" stroke-width="1"/>
	<text x="840" y="650.7" fill="#000000" font-family="Verdana" font-size="12">4_COMPARAISON</text>
</g>

<!-- Association PEUT FAIRE -->
<line x1="443" y1="254" x2="443" y2="170" stroke="#f46d43" stroke-width="2"/>
<text x="448.0" y="212" fill="#4575b4" font-family="Verdana" font-size="12">0,1</text>
<line x1="676" y1="77" x2="443" y2="170" stroke="#f46d43" stroke-width="2"/>
<text x="579" y="100.064956658" fill="#4575b4" font-family="Verdana" font-size="12">0,N</text>
<g id="association-PEUT FAIRE">
	<path d="M 472 145 a 14 14 90 0 1 14 14 V 170 h -86 V 159 a 14 14 90 0 1 14 -14" fill="#fdae61" stroke="#fdae61" stroke-width="0"/>
	<path d="M 486 170.0 v 11 a 14 14 90 0 1 -14 14 H 414 a 14 14 90 0 1 -14 -14 V 170.0 H 86" fill="#fee090" stroke="#fee090" stroke-width="0"/>
	<rect x="400" y="145" width="86" height="50" fill="none" rx="14" stroke="#f46d43" stroke-width="2"/>
	<line x1="400" y1="170" x2="486" y2="170" stroke="#f46d43" stroke-width="1"/>
	<text x="407" y="162.7" fill="#000000" font-family="Verdana" font-size="12">PEUT FAIRE</text>
</g>

<!-- Entity VILLE -->
<g id="entity-VILLE">
	<g id="frame-VILLE">
		<rect x="114" y="52" width="84" height="25" fill="#abd9e9" stroke="#abd9e9" stroke-width="0"/>
		<rect x="114" y="77.0" width="84" height="25" fill="#e0f3f8" stroke="#e0f3f8" stroke-width="0"/>
		<rect x="114" y="52" width="84" height="50" fill="none" stroke="#74add1" stroke-width="2"/>
		<line x1="114" y1="77" x2="198" y2="77" stroke="#74add1" stroke-width="1"/>
	</g>
	<text x="138" y="69.7" fill="#000000" font-family="Verdana" font-size="12">VILLE</text>
	<text x="119" y="94.8" fill="#000000" font-family="Verdana" font-size="12">code. postal</text>
	<line x1="119" y1="97" x2="193" y2="97" stroke="#000000" stroke-width="1"/>
</g>

<!-- Entity UTILISATEUR -->
<g id="entity-UTILISATEUR">
	<g id="frame-UTILISATEUR">
		<rect x="606" y="9" width="140" height="25" fill="#abd9e9" stroke="#abd9e9" stroke-width="0"/>
		<rect x="606" y="34.0" width="140" height="111" fill="#e0f3f8" stroke="#e0f3f8" stroke-width="0"/>
		<rect x="606" y="9" width="140" height="136" fill="none" stroke="#74add1" stroke-width="2"/>
		<line x1="606" y1="34" x2="746" y2="34" stroke="#74add1" stroke-width="1"/>
	</g>
	<text x="634" y="26.7" fill="#000000" font-family="Verdana" font-size="12">UTILISATEUR</text>
	<text x="611" y="51.7" fill="#000000" font-family="Verdana" font-size="12">id. utilisateur</text>
	<line x1="611" y1="54" x2="692" y2="54" stroke="#000000" stroke-width="1"/>
	<text x="611" y="68.7" fill="#000000" font-family="Verdana" font-size="12">nom</text>
	<text x="611" y="85.8" fill="#000000" font-family="Verdana" font-size="12">prénom</text>
	<text x="611" y="102.8" fill="#000000" font-family="Verdana" font-size="12">mot de passe</text>
	<text x="611" y="119.8" fill="#000000" font-family="Verdana" font-size="12">numéro de téléphone</text>
	<text x="611" y="136.8" fill="#000000" font-family="Verdana" font-size="12">email</text>
</g>

<!-- Entity SIMULATION TELEPHONE -->
<g id="entity-SIMULATION TELEPHONE">
	<g id="frame-SIMULATION TELEPHONE">
		<rect x="808" y="413" width="172" height="25" fill="#abd9e9" stroke="#abd9e9" stroke-width="0"/>
		<rect x="808" y="438.0" width="172" height="145" fill="#e0f3f8" stroke="#e0f3f8" stroke-width="0"/>
		<rect x="808" y="413" width="172" height="170" fill="none" stroke="#74add1" stroke-width="2"/>
		<line x1="808" y1="438" x2="980" y2="438" stroke="#74add1" stroke-width="1"/>
	</g>
	<text x="816" y="430.7" fill="#000000" font-family="Verdana" font-size="12">SIMULATION TELEPHONE</text>
	<text x="813" y="455.7" fill="#000000" font-family="Verdana" font-size="12">id. simu tel</text>
	<line x1="813" y1="458" x2="882" y2="458" stroke="#000000" stroke-width="1"/>
	<text x="813" y="472.7" fill="#000000" font-family="Verdana" font-size="12">prix mensuel</text>
	<text x="813" y="489.7" fill="#000000" font-family="Verdana" font-size="12">nombre de Go</text>
	<text x="813" y="506.8" fill="#000000" font-family="Verdana" font-size="12">épargne réalisée</text>
	<text x="813" y="523.8" fill="#000000" font-family="Verdana" font-size="12">engagement</text>
	<text x="813" y="540.8" fill="#000000" font-family="Verdana" font-size="12">appels/SMS/MMS Europe</text>
	<text x="813" y="557.8" fill="#000000" font-family="Verdana" font-size="12">appels/SMS.MMS Etranger</text>
	<text x="813" y="574.8" fill="#000000" font-family="Verdana" font-size="12">internet à l'étranger</text>
</g>

<!-- Entity SIMULATION GAZ -->
<g id="entity-SIMULATION GAZ">
	<g id="frame-SIMULATION GAZ">
		<rect x="9" y="405" width="294" height="25" fill="#abd9e9" stroke="#abd9e9" stroke-width="0"/>
		<rect x="9" y="430.0" width="294" height="161" fill="#e0f3f8" stroke="#e0f3f8" stroke-width="0"/>
		<rect x="9" y="405" width="294" height="186" fill="none" stroke="#74add1" stroke-width="2"/>
		<line x1="9" y1="430" x2="303" y2="430" stroke="#74add1" stroke-width="1"/>
	</g>
	<text x="101" y="422.7" fill="#000000" font-family="Verdana" font-size="12">SIMULATION GAZ</text>
	<text x="14" y="447.7" fill="#000000" font-family="Verdana" font-size="12">id. simu gaz</text>
	<line x1="14" y1="450" x2="88" y2="450" stroke="#000000" stroke-width="1"/>
	<text x="14" y="464.7" fill="#000000" font-family="Verdana" font-size="12">prix actuel</text>
	<text x="14" y="481.7" fill="#000000" font-family="Verdana" font-size="12">consommation annuelle en kwh</text>
	<text x="14" y="498.8" fill="#000000" font-family="Verdana" font-size="12">épargne réalisée</text>
	<text x="14" y="515.8" fill="#000000" font-family="Verdana" font-size="12">superficie logement</text>
	<text x="14" y="532.8" fill="#000000" font-family="Verdana" font-size="12">type de chauffage</text>
	<text x="14" y="549.8" fill="#000000" font-family="Verdana" font-size="12">énergie utilisée pour l'eau chaude et la cuisson</text>
	<text x="14" y="566.8" fill="#000000" font-family="Verdana" font-size="12">nombre de personne logement</text>
	<text x="14" y="583.8" fill="#000000" font-family="Verdana" font-size="12">qualité d'isolation</text>
</g>

<!-- Entity CONTRATS GAZ -->
<g id="entity-CONTRATS GAZ">
	<g id="frame-CONTRATS GAZ">
		<rect x="102" y="785" width="108" height="25" fill="#abd9e9" stroke="#abd9e9" stroke-width="0"/>
		<rect x="102" y="810.0" width="108" height="93" fill="#e0f3f8" stroke="#e0f3f8" stroke-width="0"/>
		<rect x="102" y="785" width="108" height="118" fill="none" stroke="#74add1" stroke-width="2"/>
		<line x1="102" y1="810" x2="210" y2="810" stroke="#74add1" stroke-width="1"/>
	</g>
	<text x="107" y="802.7" fill="#000000" font-family="Verdana" font-size="12">CONTRATS GAZ</text>
	<text x="107" y="827.7" fill="#000000" font-family="Verdana" font-size="12">id. contrat gaz</text>
	<line x1="107" y1="830" x2="196" y2="830" stroke="#000000" stroke-width="1"/>
	<text x="107" y="844.8" fill="#000000" font-family="Verdana" font-size="12">nom opérateur</text>
	<text x="107" y="861.8" fill="#000000" font-family="Verdana" font-size="12">nom de l'offre</text>
	<text x="107" y="878.8" fill="#000000" font-family="Verdana" font-size="12">prix par mois</text>
	<text x="107" y="895.8" fill="#000000" font-family="Verdana" font-size="12">prix kwh</text>
</g>

<!-- Entity CONTRATS ELECTRICITÉ -->
<g id="entity-CONTRATS ELECTRICITÉ">
	<g id="frame-CONTRATS ELECTRICITÉ">
		<rect x="362" y="776" width="162" height="25" fill="#abd9e9" stroke="#abd9e9" stroke-width="0"/>
		<rect x="362" y="801.0" width="162" height="111" fill="#e0f3f8" stroke="#e0f3f8" stroke-width="0"/>
		<rect x="362" y="776" width="162" height="136" fill="none" stroke="#74add1" stroke-width="2"/>
		<line x1="362" y1="801" x2="524" y2="801" stroke="#74add1" stroke-width="1"/>
	</g>
	<text x="367" y="793.7" fill="#000000" font-family="Verdana" font-size="12">CONTRATS ELECTRICITÉ</text>
	<text x="367" y="818.7" fill="#000000" font-family="Verdana" font-size="12">id. contrat elec</text>
	<line x1="367" y1="821" x2="458" y2="821" stroke="#000000" stroke-width="1"/>
	<text x="367" y="835.7" fill="#000000" font-family="Verdana" font-size="12">nom opérateur</text>
	<text x="367" y="852.8" fill="#000000" font-family="Verdana" font-size="12">nom de l'offre</text>
	<text x="367" y="869.8" fill="#000000" font-family="Verdana" font-size="12">puissance compteur kVA</text>
	<text x="367" y="886.8" fill="#000000" font-family="Verdana" font-size="12">prix par mois</text>
	<text x="367" y="903.8" fill="#000000" font-family="Verdana" font-size="12">prix kwh</text>
</g>

<!-- Entity CONTRATS BOX INTERNET -->
<g id="entity-CONTRATS BOX INTERNET">
	<g id="frame-CONTRATS BOX INTERNET">
		<rect x="589" y="734" width="174" height="25" fill="#abd9e9" stroke="#abd9e9" stroke-width="0"/>
		<rect x="589" y="759.0" width="174" height="195" fill="#e0f3f8" stroke="#e0f3f8" stroke-width="0"/>
		<rect x="589" y="734" width="174" height="220" fill="none" stroke="#74add1" stroke-width="2"/>
		<line x1="589" y1="759" x2="763" y2="759" stroke="#74add1" stroke-width="1"/>
	</g>
	<text x="594" y="751.7" fill="#000000" font-family="Verdana" font-size="12">CONTRATS BOX INTERNET</text>
	<text x="594" y="776.7" fill="#000000" font-family="Verdana" font-size="12">id. contrat box internet</text>
	<line x1="594" y1="779" x2="735" y2="779" stroke="#000000" stroke-width="1"/>
	<text x="594" y="793.7" fill="#000000" font-family="Verdana" font-size="12">nom opérateur</text>
	<text x="594" y="810.7" fill="#000000" font-family="Verdana" font-size="12">nom de l'offre</text>
	<text x="594" y="827.7" fill="#000000" font-family="Verdana" font-size="12">prix par mois</text>
	<text x="594" y="844.8" fill="#000000" font-family="Verdana" font-size="12">engagement</text>
	<text x="594" y="861.8" fill="#000000" font-family="Verdana" font-size="12">type internet</text>
	<text x="594" y="878.8" fill="#000000" font-family="Verdana" font-size="12">appel fixe France</text>
	<text x="594" y="895.8" fill="#000000" font-family="Verdana" font-size="12">appel mobile France</text>
	<text x="594" y="912.8" fill="#000000" font-family="Verdana" font-size="12">appel étranger</text>
	<text x="594" y="929.8" fill="#000000" font-family="Verdana" font-size="12">frais d'installation</text>
	<text x="594" y="946.8" fill="#000000" font-family="Verdana" font-size="12">frais de résiliation</text>
</g>

<!-- Entity SIMULATION -->
<g id="entity-SIMULATION">
	<g id="frame-SIMULATION">
		<rect x="385" y="220" width="116" height="25" fill="#abd9e9" stroke="#abd9e9" stroke-width="0"/>
		<rect x="385" y="245.0" width="116" height="43" fill="#e0f3f8" stroke="#e0f3f8" stroke-width="0"/>
		<rect x="385" y="220" width="116" height="68" fill="none" stroke="#74add1" stroke-width="2"/>
		<line x1="385" y1="245" x2="501" y2="245" stroke="#74add1" stroke-width="1"/>
	</g>
	<text x="403" y="237.7" fill="#000000" font-family="Verdana" font-size="12">SIMULATION</text>
	<text x="390" y="262.8" fill="#000000" font-family="Verdana" font-size="12">id. simulation</text>
	<line x1="390" y1="265" x2="473" y2="265" stroke="#000000" stroke-width="1"/>
	<text x="390" y="279.8" fill="#000000" font-family="Verdana" font-size="12">montant épargné</text>
</g>

<!-- Entity SIMULATION BOX INTERNET -->
<g id="entity-SIMULATION BOX INTERNET">
	<g id="frame-SIMULATION BOX INTERNET">
		<rect x="583" y="430" width="186" height="25" fill="#abd9e9" stroke="#abd9e9" stroke-width="0"/>
		<rect x="583" y="455.0" width="186" height="111" fill="#e0f3f8" stroke="#e0f3f8" stroke-width="0"/>
		<rect x="583" y="430" width="186" height="136" fill="none" stroke="#74add1" stroke-width="2"/>
		<line x1="583" y1="455" x2="769" y2="455" stroke="#74add1" stroke-width="1"/>
	</g>
	<text x="588" y="447.7" fill="#000000" font-family="Verdana" font-size="12">SIMULATION BOX INTERNET</text>
	<text x="588" y="472.7" fill="#000000" font-family="Verdana" font-size="12">id. simu box internet</text>
	<line x1="588" y1="475" x2="715" y2="475" stroke="#000000" stroke-width="1"/>
	<text x="588" y="489.7" fill="#000000" font-family="Verdana" font-size="12">prix mensuel</text>
	<text x="588" y="506.8" fill="#000000" font-family="Verdana" font-size="12">épargne réalisée</text>
	<text x="588" y="523.8" fill="#000000" font-family="Verdana" font-size="12">option télé</text>
	<text x="588" y="540.8" fill="#000000" font-family="Verdana" font-size="12">appel fixe en France</text>
	<text x="588" y="557.8" fill="#000000" font-family="Verdana" font-size="12">appel mobile en France</text>
</g>

<!-- Entity SIMULATION ELECTRICITÉ -->
<g id="entity-SIMULATION ELECTRICITÉ">
	<g id="frame-SIMULATION ELECTRICITÉ">
		<rect x="335" y="388" width="216" height="25" fill="#abd9e9" stroke="#abd9e9" stroke-width="0"/>
		<rect x="335" y="413.0" width="216" height="195" fill="#e0f3f8" stroke="#e0f3f8" stroke-width="0"/>
		<rect x="335" y="388" width="216" height="220" fill="none" stroke="#74add1" stroke-width="2"/>
		<line x1="335" y1="413" x2="551" y2="413" stroke="#74add1" stroke-width="1"/>
	</g>
	<text x="361" y="405.7" fill="#000000" font-family="Verdana" font-size="12">SIMULATION ELECTRICITÉ</text>
	<text x="340" y="430.7" fill="#000000" font-family="Verdana" font-size="12">id. simu elec</text>
	<line x1="340" y1="433" x2="417" y2="433" stroke="#000000" stroke-width="1"/>
	<text x="340" y="447.7" fill="#000000" font-family="Verdana" font-size="12">prix actuel</text>
	<text x="340" y="464.7" fill="#000000" font-family="Verdana" font-size="12">consommation annuelle en kwh</text>
	<text x="340" y="481.7" fill="#000000" font-family="Verdana" font-size="12">puissance du compteur kVA</text>
	<text x="340" y="498.8" fill="#000000" font-family="Verdana" font-size="12">épargne réalisée</text>
	<text x="340" y="515.8" fill="#000000" font-family="Verdana" font-size="12">superficie logement</text>
	<text x="340" y="532.8" fill="#000000" font-family="Verdana" font-size="12">type de chauffage</text>
	<text x="340" y="549.8" fill="#000000" font-family="Verdana" font-size="12">énergie utilisée pour la cuisson</text>
	<text x="340" y="566.8" fill="#000000" font-family="Verdana" font-size="12">énergie utilisée pour l'eau chaude</text>
	<text x="340" y="583.8" fill="#000000" font-family="Verdana" font-size="12">nombre de personne logement</text>
	<text x="340" y="600.8" fill="#000000" font-family="Verdana" font-size="12">qualité d'isolation</text>
</g>

<!-- Entity CONTRATS TELEPHONE -->
<g id="entity-CONTRATS TELEPHONE">
	<g id="frame-CONTRATS TELEPHONE">
		<rect x="795" y="708" width="198" height="25" fill="#abd9e9" stroke="#abd9e9" stroke-width="0"/>
		<rect x="795" y="733.0" width="198" height="247" fill="#e0f3f8" stroke="#e0f3f8" stroke-width="0"/>
		<rect x="795" y="708" width="198" height="272" fill="none" stroke="#74add1" stroke-width="2"/>
		<line x1="795" y1="733" x2="993" y2="733" stroke="#74add1" stroke-width="1"/>
	</g>
	<text x="822" y="725.7" fill="#000000" font-family="Verdana" font-size="12">CONTRATS TELEPHONE</text>
	<text x="800" y="750.7" fill="#000000" font-family="Verdana" font-size="12">id. contrat tel</text>
	<line x1="800" y1="753" x2="883" y2="753" stroke="#000000" stroke-width="1"/>
	<text x="800" y="767.7" fill="#000000" font-family="Verdana" font-size="12">nom opérateur</text>
	<text x="800" y="784.7" fill="#000000" font-family="Verdana" font-size="12">nom de l'offre</text>
	<text x="800" y="801.7" fill="#000000" font-family="Verdana" font-size="12">frais de mise en service</text>
	<text x="800" y="818.7" fill="#000000" font-family="Verdana" font-size="12">prix carte sim</text>
	<text x="800" y="835.7" fill="#000000" font-family="Verdana" font-size="12">engagement</text>
	<text x="800" y="852.8" fill="#000000" font-family="Verdana" font-size="12">avec téléphone</text>
	<text x="800" y="869.8" fill="#000000" font-family="Verdana" font-size="12">prix</text>
	<text x="800" y="886.8" fill="#000000" font-family="Verdana" font-size="12">nombre de giga</text>
	<text x="800" y="903.8" fill="#000000" font-family="Verdana" font-size="12">appels/SMS/MMS France</text>
	<text x="800" y="920.8" fill="#000000" font-family="Verdana" font-size="12">appel/SMS/MMS Europe</text>
	<text x="800" y="937.8" fill="#000000" font-family="Verdana" font-size="12">giga europe</text>
	<text x="800" y="954.8" fill="#000000" font-family="Verdana" font-size="12">appels/SMS/MMS International</text>
	<text x="800" y="971.8" fill="#000000" font-family="Verdana" font-size="12">internet à l'International</text>
</g>
</svg>